<svg width="531" height="97" viewBox="0 0 531 97" fill="none" xmlns="http://www.w3.org/2000/svg" style="">
<path d="M370.5 35.375C376.5 22.875 382 23.375 392 23.375C402 23.375 407.5 34.875 407.5 34.875H409C420 16.875 438.5 23.375 444 28.375C449.5 33.375 451 41.875 451 47.375V93.875H440V47.375C440 27.375 410.5 28.375 410.5 47.375V93.875H399.5V47.375C399.5 23.875 370 32.8785 370 47.375V93.875H359V23.875H369.5V35.375H370.5ZM370.5 35.375H371M1 24L22 94.3343H33L48 40.5788H49L64.5 94.3343C68 94.8366 75 95.54 75 94.3343C75 93.1285 89 46.9424 96 24H85L69.5 77.7555L54.5 24H43L27.5 77.7555L12 24H1ZM183 1V94H193.5V1H183ZM105.5 63.0003C111 111.5 164 96 165.5 78L155 75C155 75 153 85.5 137 86C121 86.5 114 68 116 63.0003H166.5C170.5 6.00032 100 14.5007 105.5 63.0003ZM116 53.5001C119.5 20.5 158 32.5 156 53.5001H116ZM269 45C267.5 34.5 258 28 258 28C258 28 242 17.0001 224 28.5C206 40 205 78.5 224 90.5C243 102.5 269.5 90.5 269 73.5H258.5C258.5 73.5 252 94 229 81.5C229 81.5 214.5 71 224 45C224 45 227.5 38 232.5 35C232.5 35 241 29.5 250.5 35C250.5 35 257 39.5 258.5 45L269 45ZM313 23.0048C268.875 23.6932 271.817 96.0001 313 96C354.183 95.9999 357.125 22.3164 313 23.0048ZM313 33C292 33 292 57.5 292 59.5C292 59.5 292.5 86 313 86C333.5 86 334 64.5 334 59.5C334 54.5 334 33 313 33ZM469.306 62.6263C474.806 111.126 527.806 95.626 529.306 77.626L518.806 74.626C518.806 74.626 516.806 85.126 500.806 85.626C484.806 86.126 477.806 67.626 479.806 62.6263H530.306C534.306 5.62638 463.806 14.1267 469.306 62.6263ZM479.806 53.1261C483.306 20.1261 521.806 32.126 519.806 53.1261H479.806Z" stroke="white" class="jniLkQge_0"></path>
<style data-made-with="vivus-instant">.jniLkQge_0{stroke-dasharray:2849 2851;stroke-dashoffset:2850;animation:jniLkQge_draw 10000ms ease-in-out 0ms forwards;}@keyframes jniLkQge_draw{100%{stroke-dashoffset:0;}}@keyframes jniLkQge_fade{0%{stroke-opacity:1;}97.91666666666667%{stroke-opacity:1;}100%{stroke-opacity:0;}}</style></svg>
