<svg width="530" height="96" viewBox="0 0 530 96" fill="none" xmlns="http://www.w3.org/2000/svg">
<path d="M21.6364 94L0.363647 24.1818H11.6364L26.7273 77.6364H27.4546L42.3636 24.1818H53.8182L68.5455 77.4545H69.2727L84.3636 24.1818H95.6364L74.3636 94H63.8182L48.5455 40.3636H47.4546L32.1818 94H21.6364Z" fill="white"/>
<path d="M136.716 95.4545C129.989 95.4545 124.186 93.9697 119.307 91C114.458 88 110.716 83.8182 108.08 78.4545C105.473 73.0606 104.17 66.7879 104.17 59.6364C104.17 52.4849 105.473 46.1818 108.08 40.7273C110.716 35.2424 114.383 30.9697 119.08 27.9091C123.807 24.8182 129.322 23.2727 135.625 23.2727C139.261 23.2727 142.852 23.8788 146.398 25.0909C149.943 26.303 153.17 28.2727 156.08 31C158.989 33.697 161.307 37.2727 163.034 41.7273C164.761 46.1818 165.625 51.6667 165.625 58.1818V62.7273H111.807V53.4545H154.716C154.716 49.5151 153.928 46 152.352 42.9091C150.807 39.8182 148.595 37.3788 145.716 35.5909C142.867 33.803 139.504 32.9091 135.625 32.9091C131.352 32.9091 127.655 33.9697 124.534 36.0909C121.443 38.1818 119.064 40.9091 117.398 44.2727C115.731 47.6364 114.898 51.2424 114.898 55.0909V61.2727C114.898 66.5455 115.807 71.0152 117.625 74.6818C119.473 78.3182 122.034 81.0909 125.307 83C128.58 84.8788 132.383 85.8182 136.716 85.8182C139.534 85.8182 142.08 85.4242 144.352 84.6364C146.655 83.8182 148.64 82.6061 150.307 81C151.974 79.3636 153.261 77.3333 154.17 74.9091L164.534 77.8182C163.443 81.3333 161.61 84.4242 159.034 87.0909C156.458 89.7273 153.277 91.7879 149.489 93.2727C145.701 94.7273 141.443 95.4545 136.716 95.4545Z" fill="white"/>
<path d="M192.67 0.909088V94H181.943V0.909088H192.67Z" fill="white"/>
<path d="M240.682 95.4545C234.136 95.4545 228.5 93.9091 223.773 90.8182C219.045 87.7273 215.409 83.4697 212.864 78.0455C210.318 72.6212 209.045 66.4242 209.045 59.4545C209.045 52.3636 210.348 46.1061 212.955 40.6818C215.591 35.2273 219.258 30.9697 223.955 27.9091C228.682 24.8182 234.197 23.2727 240.5 23.2727C245.409 23.2727 249.833 24.1818 253.773 26C257.712 27.8182 260.939 30.3636 263.455 33.6364C265.97 36.9091 267.53 40.7273 268.136 45.0909H257.409C256.591 41.9091 254.773 39.0909 251.955 36.6364C249.167 34.1515 245.409 32.9091 240.682 32.9091C236.5 32.9091 232.833 34 229.682 36.1818C226.561 38.3333 224.121 41.3788 222.364 45.3182C220.636 49.2273 219.773 53.8182 219.773 59.0909C219.773 64.4849 220.621 69.1818 222.318 73.1818C224.045 77.1818 226.47 80.2879 229.591 82.5C232.742 84.7121 236.439 85.8182 240.682 85.8182C243.47 85.8182 246 85.3333 248.273 84.3636C250.545 83.3939 252.47 82 254.045 80.1818C255.621 78.3636 256.742 76.1818 257.409 73.6364H268.136C267.53 77.7576 266.03 81.4697 263.636 84.7727C261.273 88.0455 258.136 90.6515 254.227 92.5909C250.348 94.5 245.833 95.4545 240.682 95.4545Z" fill="white"/>
<path d="M312.182 95.4545C305.879 95.4545 300.348 93.9545 295.591 90.9545C290.864 87.9545 287.167 83.7576 284.5 78.3636C281.864 72.9697 280.545 66.6667 280.545 59.4545C280.545 52.1818 281.864 45.8333 284.5 40.4091C287.167 34.9848 290.864 30.7727 295.591 27.7727C300.348 24.7727 305.879 23.2727 312.182 23.2727C318.485 23.2727 324 24.7727 328.727 27.7727C333.485 30.7727 337.182 34.9848 339.818 40.4091C342.485 45.8333 343.818 52.1818 343.818 59.4545C343.818 66.6667 342.485 72.9697 339.818 78.3636C337.182 83.7576 333.485 87.9545 328.727 90.9545C324 93.9545 318.485 95.4545 312.182 95.4545ZM312.182 85.8182C316.97 85.8182 320.909 84.5909 324 82.1364C327.091 79.6818 329.379 76.4545 330.864 72.4545C332.349 68.4545 333.091 64.1212 333.091 59.4545C333.091 54.7879 332.349 50.4394 330.864 46.4091C329.379 42.3788 327.091 39.1212 324 36.6364C320.909 34.1515 316.97 32.9091 312.182 32.9091C307.394 32.9091 303.455 34.1515 300.364 36.6364C297.273 39.1212 294.985 42.3788 293.5 46.4091C292.015 50.4394 291.273 54.7879 291.273 59.4545C291.273 64.1212 292.015 68.4545 293.5 72.4545C294.985 76.4545 297.273 79.6818 300.364 82.1364C303.455 84.5909 307.394 85.8182 312.182 85.8182Z" fill="white"/>
<path d="M360.193 94V24.1818H370.557V35.0909H371.466C372.92 31.3636 375.269 28.4697 378.511 26.4091C381.754 24.3182 385.648 23.2727 390.193 23.2727C394.799 23.2727 398.633 24.3182 401.693 26.4091C404.784 28.4697 407.193 31.3636 408.92 35.0909H409.648C411.436 31.4848 414.117 28.6212 417.693 26.5C421.269 24.3485 425.557 23.2727 430.557 23.2727C436.799 23.2727 441.905 25.2273 445.875 29.1364C449.845 33.0151 451.83 39.0606 451.83 47.2727V94H441.102V47.2727C441.102 42.1212 439.693 38.4394 436.875 36.2273C434.057 34.0151 430.739 32.9091 426.92 32.9091C422.011 32.9091 418.208 34.3939 415.511 37.3636C412.814 40.303 411.466 44.0303 411.466 48.5455V94H400.557V46.1818C400.557 42.2121 399.269 39.0152 396.693 36.5909C394.117 34.1364 390.799 32.9091 386.739 32.9091C383.951 32.9091 381.345 33.6515 378.92 35.1364C376.527 36.6212 374.587 38.6818 373.102 41.3182C371.648 43.9242 370.92 46.9394 370.92 50.3636V94H360.193Z" fill="white"/>
<path d="M500.716 95.4545C493.989 95.4545 488.186 93.9697 483.307 91C478.458 88 474.716 83.8182 472.08 78.4545C469.474 73.0606 468.17 66.7879 468.17 59.6364C468.17 52.4849 469.474 46.1818 472.08 40.7273C474.716 35.2424 478.383 30.9697 483.08 27.9091C487.807 24.8182 493.322 23.2727 499.625 23.2727C503.261 23.2727 506.852 23.8788 510.398 25.0909C513.943 26.303 517.17 28.2727 520.08 31C522.989 33.697 525.307 37.2727 527.034 41.7273C528.761 46.1818 529.625 51.6667 529.625 58.1818V62.7273H475.807V53.4545H518.716C518.716 49.5151 517.928 46 516.352 42.9091C514.807 39.8182 512.595 37.3788 509.716 35.5909C506.867 33.803 503.504 32.9091 499.625 32.9091C495.352 32.9091 491.655 33.9697 488.534 36.0909C485.443 38.1818 483.064 40.9091 481.398 44.2727C479.731 47.6364 478.898 51.2424 478.898 55.0909V61.2727C478.898 66.5455 479.807 71.0152 481.625 74.6818C483.473 78.3182 486.034 81.0909 489.307 83C492.58 84.8788 496.383 85.8182 500.716 85.8182C503.534 85.8182 506.08 85.4242 508.352 84.6364C510.655 83.8182 512.64 82.6061 514.307 81C515.974 79.3636 517.261 77.3333 518.17 74.9091L528.534 77.8182C527.443 81.3333 525.61 84.4242 523.034 87.0909C520.458 89.7273 517.277 91.7879 513.489 93.2727C509.701 94.7273 505.443 95.4545 500.716 95.4545Z" fill="white"/>
</svg>
